<svg width="1600" height="1400" viewBox="0 0 1600 1400" fill="none" xmlns="http://www.w3.org/2000/svg">
  <defs>
    <radialGradient id="mistA" cx="0" cy="0" r="1" gradientUnits="userSpaceOnUse" gradientTransform="translate(208 160) rotate(14) scale(420 300)">
      <stop stop-color="#9FE8DE" stop-opacity="0.26"/>
      <stop offset="1" stop-color="#9FE8DE" stop-opacity="0"/>
    </radialGradient>
    <radialGradient id="mistB" cx="0" cy="0" r="1" gradientUnits="userSpaceOnUse" gradientTransform="translate(1340 228) rotate(-14) scale(320 280)">
      <stop stop-color="#F5D1AD" stop-opacity="0.24"/>
      <stop offset="1" stop-color="#F5D1AD" stop-opacity="0"/>
    </radialGradient>
    <radialGradient id="mistC" cx="0" cy="0" r="1" gradientUnits="userSpaceOnUse" gradientTransform="translate(1200 1160) rotate(10) scale(420 320)">
      <stop stop-color="#C3DBFF" stop-opacity="0.22"/>
      <stop offset="1" stop-color="#C3DBFF" stop-opacity="0"/>
    </radialGradient>
    <radialGradient id="mistD" cx="0" cy="0" r="1" gradientUnits="userSpaceOnUse" gradientTransform="translate(480 1168) rotate(-6) scale(460 260)">
      <stop stop-color="#CAE7D4" stop-opacity="0.16"/>
      <stop offset="1" stop-color="#CAE7D4" stop-opacity="0"/>
    </radialGradient>
    <linearGradient id="branchStroke" x1="0" y1="0" x2="1" y2="1">
      <stop stop-color="#FFFFFF" stop-opacity="0.42"/>
      <stop offset="1" stop-color="#FFFFFF" stop-opacity="0.06"/>
    </linearGradient>
    <linearGradient id="forestFade" x1="0" y1="980" x2="0" y2="1400">
      <stop stop-color="#7FA79B" stop-opacity="0"/>
      <stop offset="1" stop-color="#7FA79B" stop-opacity="0.08"/>
    </linearGradient>
  </defs>

  <rect width="1600" height="1400" fill="#F6F7F2"/>
  <circle cx="208" cy="160" r="420" fill="url(#mistA)"/>
  <circle cx="1340" cy="228" r="320" fill="url(#mistB)"/>
  <circle cx="1200" cy="1160" r="420" fill="url(#mistC)"/>
  <circle cx="480" cy="1168" r="460" fill="url(#mistD)"/>

  <g opacity="0.44">
    <path d="M-40 208C120 134 266 116 396 148C520 178 624 254 734 278C846 302 968 272 1100 294C1218 314 1324 384 1428 482" stroke="url(#branchStroke)" stroke-width="2"/>
    <path d="M66 304C146 268 222 258 288 278C350 296 398 342 468 352C546 364 624 326 694 348" stroke="url(#branchStroke)" stroke-width="1.5"/>
    <path d="M1038 786C1126 740 1210 736 1286 758C1364 780 1424 828 1510 854" stroke="url(#branchStroke)" stroke-width="2"/>
    <path d="M966 858C1042 830 1102 834 1154 860C1202 886 1244 932 1306 944" stroke="url(#branchStroke)" stroke-width="1.5"/>
    <path d="M228 1072C356 968 530 940 676 986C750 1010 814 1058 888 1076" stroke="url(#branchStroke)" stroke-width="1.6"/>
  </g>

  <g opacity="0.22">
    <path d="M122 0V1400" stroke="#A7B9AC" stroke-width="10" stroke-linecap="round"/>
    <path d="M146 0V1400" stroke="#F8FBF8" stroke-width="18" stroke-linecap="round"/>
    <path d="M141 102C132 110 131 126 141 136" stroke="#778B80" stroke-width="4" stroke-linecap="round"/>
    <path d="M143 248C130 258 130 276 144 288" stroke="#778B80" stroke-width="4" stroke-linecap="round"/>
    <path d="M143 418C154 430 154 448 142 458" stroke="#778B80" stroke-width="4" stroke-linecap="round"/>
    <path d="M142 612C131 622 132 638 142 648" stroke="#778B80" stroke-width="4" stroke-linecap="round"/>
    <path d="M143 788C154 798 154 816 142 826" stroke="#778B80" stroke-width="4" stroke-linecap="round"/>
    <path d="M143 978C131 988 131 1006 145 1018" stroke="#778B80" stroke-width="4" stroke-linecap="round"/>
  </g>

  <g opacity="0.18">
    <path d="M1482 0V1400" stroke="#A7B9AC" stroke-width="8" stroke-linecap="round"/>
    <path d="M1500 0V1400" stroke="#F7FAF8" stroke-width="14" stroke-linecap="round"/>
    <path d="M1492 154C1480 164 1480 182 1492 192" stroke="#7D9186" stroke-width="3.5" stroke-linecap="round"/>
    <path d="M1494 364C1505 374 1504 392 1492 402" stroke="#7D9186" stroke-width="3.5" stroke-linecap="round"/>
    <path d="M1492 612C1480 622 1480 640 1492 650" stroke="#7D9186" stroke-width="3.5" stroke-linecap="round"/>
    <path d="M1494 894C1505 904 1504 922 1492 932" stroke="#7D9186" stroke-width="3.5" stroke-linecap="round"/>
  </g>

  <g opacity="0.12">
    <path d="M240 1180C260 1120 288 1060 312 1000" stroke="#93ADA1" stroke-width="3" stroke-linecap="round"/>
    <path d="M312 1000C294 982 278 962 264 936" stroke="#93ADA1" stroke-width="2.4" stroke-linecap="round"/>
    <path d="M312 1000C330 986 348 968 366 940" stroke="#93ADA1" stroke-width="2.4" stroke-linecap="round"/>
    <path d="M300 1044C282 1030 268 1012 254 986" stroke="#93ADA1" stroke-width="2.2" stroke-linecap="round"/>
    <path d="M324 1050C344 1036 362 1014 378 986" stroke="#93ADA1" stroke-width="2.2" stroke-linecap="round"/>
  </g>

  <g opacity="0.12">
    <path d="M1270 1188C1288 1132 1312 1074 1336 1010" stroke="#93ADA1" stroke-width="3" stroke-linecap="round"/>
    <path d="M1336 1010C1320 992 1304 972 1290 948" stroke="#93ADA1" stroke-width="2.4" stroke-linecap="round"/>
    <path d="M1336 1010C1354 996 1374 978 1392 950" stroke="#93ADA1" stroke-width="2.4" stroke-linecap="round"/>
    <path d="M1326 1050C1310 1038 1298 1020 1286 998" stroke="#93ADA1" stroke-width="2.2" stroke-linecap="round"/>
    <path d="M1348 1056C1366 1040 1384 1020 1402 994" stroke="#93ADA1" stroke-width="2.2" stroke-linecap="round"/>
  </g>

  <g opacity="0.08">
    <path d="M58 1228C108 1170 130 1098 142 1016C156 1100 176 1170 230 1228" fill="none" stroke="#7D9F92" stroke-width="3.2" stroke-linecap="round" stroke-linejoin="round"/>
    <path d="M126 1144C102 1112 88 1076 84 1036C108 1058 126 1074 142 1098C160 1076 176 1058 202 1038C198 1078 184 1112 160 1144" fill="#7D9F92"/>
    <path d="M1368 1216C1418 1160 1442 1088 1452 1008C1466 1088 1490 1160 1540 1216" fill="none" stroke="#7D9F92" stroke-width="3.2" stroke-linecap="round" stroke-linejoin="round"/>
    <path d="M1438 1134C1416 1104 1400 1068 1398 1030C1420 1050 1436 1068 1452 1090C1470 1068 1488 1050 1512 1030C1508 1068 1494 1104 1470 1134" fill="#7D9F92"/>
  </g>

  <rect x="0" y="1008" width="1600" height="392" fill="url(#forestFade)"/>
</svg>
