<svg width="1600" height="1400" viewBox="0 0 1600 1400" fill="none" xmlns="http://www.w3.org/2000/svg">
  <defs>
    <radialGradient id="skyGlowLeft" cx="0" cy="0" r="1" gradientUnits="userSpaceOnUse" gradientTransform="translate(220 150) rotate(12) scale(420 280)">
      <stop stop-color="#A6EBE2" stop-opacity="0.28"/>
      <stop offset="1" stop-color="#A6EBE2" stop-opacity="0"/>
    </radialGradient>
    <radialGradient id="skyGlowRight" cx="0" cy="0" r="1" gradientUnits="userSpaceOnUse" gradientTransform="translate(1360 220) rotate(-10) scale(360 260)">
      <stop stop-color="#F1D8B8" stop-opacity="0.24"/>
      <stop offset="1" stop-color="#F1D8B8" stop-opacity="0"/>
    </radialGradient>
    <radialGradient id="groundGlow" cx="0" cy="0" r="1" gradientUnits="userSpaceOnUse" gradientTransform="translate(920 1180) rotate(0) scale(720 300)">
      <stop stop-color="#D6E6D7" stop-opacity="0.28"/>
      <stop offset="1" stop-color="#D6E6D7" stop-opacity="0"/>
    </radialGradient>
    <linearGradient id="birchDark" x1="0" y1="0" x2="0" y2="1">
      <stop stop-color="#A4B8AD" stop-opacity="0.34"/>
      <stop offset="1" stop-color="#A4B8AD" stop-opacity="0.12"/>
    </linearGradient>
    <linearGradient id="birchLight" x1="0" y1="0" x2="0" y2="1">
      <stop stop-color="#FFFFFF" stop-opacity="0.54"/>
      <stop offset="1" stop-color="#FFFFFF" stop-opacity="0.18"/>
    </linearGradient>
    <linearGradient id="forestFade" x1="0" y1="960" x2="0" y2="1400">
      <stop stop-color="#7EA093" stop-opacity="0"/>
      <stop offset="1" stop-color="#7EA093" stop-opacity="0.13"/>
    </linearGradient>
    <linearGradient id="branchLine" x1="0" y1="0" x2="1" y2="1">
      <stop stop-color="#FFFFFF" stop-opacity="0.48"/>
      <stop offset="1" stop-color="#FFFFFF" stop-opacity="0.05"/>
    </linearGradient>
  </defs>

  <rect width="1600" height="1400" fill="#F7F7F2"/>
  <circle cx="220" cy="150" r="420" fill="url(#skyGlowLeft)"/>
  <circle cx="1360" cy="220" r="360" fill="url(#skyGlowRight)"/>
  <circle cx="920" cy="1180" r="720" fill="url(#groundGlow)"/>

  <g opacity="0.38">
    <path d="M-20 216C134 152 286 138 418 166C542 192 654 250 778 276C892 300 1014 286 1130 316C1254 346 1366 420 1476 520" stroke="url(#branchLine)" stroke-width="2.2"/>
    <path d="M82 304C162 268 236 262 302 284C364 306 420 346 490 360C564 374 646 344 718 360" stroke="url(#branchLine)" stroke-width="1.6"/>
    <path d="M944 808C1028 772 1108 768 1188 790C1268 814 1340 858 1436 886" stroke="url(#branchLine)" stroke-width="1.9"/>
    <path d="M230 1064C360 980 512 950 654 982C754 1006 844 1054 942 1084" stroke="url(#branchLine)" stroke-width="1.8"/>
  </g>

  <g opacity="0.2">
    <path d="M110 0V1400" stroke="url(#birchDark)" stroke-width="9" stroke-linecap="round"/>
    <path d="M132 0V1400" stroke="url(#birchLight)" stroke-width="16" stroke-linecap="round"/>
    <path d="M126 110C116 120 116 136 128 146" stroke="#7C9186" stroke-width="3.8" stroke-linecap="round"/>
    <path d="M126 258C138 270 140 284 128 296" stroke="#7C9186" stroke-width="3.8" stroke-linecap="round"/>
    <path d="M126 450C116 460 116 478 128 488" stroke="#7C9186" stroke-width="3.8" stroke-linecap="round"/>
    <path d="M126 654C140 666 140 682 126 694" stroke="#7C9186" stroke-width="3.8" stroke-linecap="round"/>
    <path d="M126 866C116 876 116 894 130 906" stroke="#7C9186" stroke-width="3.8" stroke-linecap="round"/>
    <path d="M126 1094C138 1108 138 1124 126 1136" stroke="#7C9186" stroke-width="3.8" stroke-linecap="round"/>
  </g>

  <g opacity="0.18">
    <path d="M1460 0V1400" stroke="url(#birchDark)" stroke-width="8" stroke-linecap="round"/>
    <path d="M1478 0V1400" stroke="url(#birchLight)" stroke-width="14" stroke-linecap="round"/>
    <path d="M1470 144C1458 156 1458 172 1472 182" stroke="#7C9186" stroke-width="3.5" stroke-linecap="round"/>
    <path d="M1470 352C1482 364 1482 380 1470 392" stroke="#7C9186" stroke-width="3.5" stroke-linecap="round"/>
    <path d="M1470 600C1458 612 1458 628 1472 640" stroke="#7C9186" stroke-width="3.5" stroke-linecap="round"/>
    <path d="M1470 878C1482 890 1482 906 1470 918" stroke="#7C9186" stroke-width="3.5" stroke-linecap="round"/>
    <path d="M1470 1140C1458 1152 1458 1168 1472 1180" stroke="#7C9186" stroke-width="3.5" stroke-linecap="round"/>
  </g>

  <g opacity="0.12">
    <path d="M72 1240C120 1170 152 1096 168 1008C188 1098 224 1172 280 1240" fill="none" stroke="#7E9C90" stroke-width="3.2" stroke-linecap="round" stroke-linejoin="round"/>
    <path d="M156 1124C126 1092 108 1052 104 1008C130 1034 150 1054 168 1080C188 1054 206 1034 234 1008C230 1052 212 1092 184 1124" fill="#7E9C90"/>
    <path d="M248 1262C298 1186 328 1108 344 1020C362 1108 394 1188 446 1262" fill="none" stroke="#7E9C90" stroke-width="3" stroke-linecap="round" stroke-linejoin="round"/>
    <path d="M332 1142C304 1110 286 1072 282 1030C308 1056 326 1074 344 1098C362 1074 382 1056 406 1030C402 1072 384 1110 358 1142" fill="#7E9C90"/>
    <path d="M488 1274C540 1194 570 1118 586 1028C604 1118 634 1196 688 1274" fill="none" stroke="#7E9C90" stroke-width="2.9" stroke-linecap="round" stroke-linejoin="round"/>
    <path d="M574 1156C546 1122 528 1084 524 1042C548 1066 568 1088 586 1110C604 1088 622 1066 646 1042C642 1084 626 1122 598 1156" fill="#7E9C90"/>
    <path d="M760 1282C812 1200 844 1124 858 1036C878 1124 910 1200 962 1282" fill="none" stroke="#7E9C90" stroke-width="2.8" stroke-linecap="round" stroke-linejoin="round"/>
    <path d="M846 1162C818 1128 800 1090 796 1048C820 1072 840 1092 858 1116C876 1092 894 1072 920 1048C916 1090 900 1128 872 1162" fill="#7E9C90"/>
    <path d="M1020 1276C1074 1192 1104 1116 1120 1032C1138 1116 1170 1192 1224 1276" fill="none" stroke="#7E9C90" stroke-width="2.9" stroke-linecap="round" stroke-linejoin="round"/>
    <path d="M1106 1158C1078 1124 1062 1088 1058 1046C1082 1070 1102 1092 1120 1114C1138 1092 1158 1070 1182 1046C1178 1088 1160 1124 1134 1158" fill="#7E9C90"/>
    <path d="M1268 1260C1322 1180 1352 1104 1366 1020C1386 1104 1416 1182 1468 1260" fill="none" stroke="#7E9C90" stroke-width="3" stroke-linecap="round" stroke-linejoin="round"/>
    <path d="M1352 1142C1324 1110 1308 1072 1304 1030C1328 1054 1348 1074 1366 1098C1384 1074 1404 1054 1428 1030C1424 1072 1408 1110 1380 1142" fill="#7E9C90"/>
  </g>

  <g opacity="0.11">
    <path d="M62 1112C92 1050 120 1004 150 970" stroke="#8EA79C" stroke-width="2.6" stroke-linecap="round"/>
    <path d="M150 970C126 950 108 926 96 900" stroke="#8EA79C" stroke-width="2.1" stroke-linecap="round"/>
    <path d="M150 970C176 952 198 930 220 900" stroke="#8EA79C" stroke-width="2.1" stroke-linecap="round"/>
    <path d="M1420 1108C1448 1046 1476 1002 1506 968" stroke="#8EA79C" stroke-width="2.6" stroke-linecap="round"/>
    <path d="M1506 968C1484 948 1464 924 1452 898" stroke="#8EA79C" stroke-width="2.1" stroke-linecap="round"/>
    <path d="M1506 968C1532 950 1556 928 1578 898" stroke="#8EA79C" stroke-width="2.1" stroke-linecap="round"/>
  </g>

  <rect x="0" y="980" width="1600" height="420" fill="url(#forestFade)"/>
</svg>
